<?xml version="1.0" encoding="UTF-8"?>
<svg id="Layer_2" data-name="Layer 2" xmlns="http://www.w3.org/2000/svg" viewBox="0 0 69.01 69.01">
  <defs>
    <style>
      .cls-1 {
        fill: #1a1818;
      }

      .cls-2 {
        stroke: #1a1818;
        stroke-width: 1.16px;
      }

      .cls-2, .cls-3 {
        fill: none;
      }

      .cls-4 {
        fill: #fff;
      }

      .cls-3 {
        opacity: 0;
        stroke: #fff;
      }
    </style>
  </defs>
  <g id="Layer_2-2" data-name="Layer 2">
    <g>
      <g>
        <polygon class="cls-4" points="32.14 23.41 32.14 37.79 45.8 29.9 45.8 15.52 32.14 23.41"/>
        <polygon class="cls-4" points="49.48 52.39 43.14 48.72 32.01 55.15 38.36 58.81 49.48 52.39"/>
        <polygon class="cls-4" points="32.16 40.91 32.09 55.22 45.8 47.3 45.87 33 32.16 40.91"/>
        <polygon class="cls-4" points="49.61 35.02 43.27 31.35 32.14 37.78 38.49 41.44 49.61 35.02"/>
        <line class="cls-2" x1="32.14" y1="55.21" x2="39.32" y2="51.04"/>
        <line class="cls-2" x1="32.14" y1="37.79" x2="39.32" y2="33.63"/>
        <path class="cls-1" d="M44.74,34.82c-.04-4.01-2.87-8.86-6.36-10.88L13.18,9.4v7.29s12.6,7.28,12.6,7.28v34.86s6.36,3.67,6.36,3.67l6.24,3.6h0l.2.11h0c3.42,1.85,6.16.22,6.16-3.73v-27.57h0v-.08h0ZM32.14,55.21v-10.14s6.24,3.6,6.24,3.6v10.14s-6.24-3.6-6.24-3.6ZM38.38,41.38l-6.24-3.6v-10.14s6.24,3.6,6.24,3.6v10.14Z"/>
        <g>
          <path class="cls-4" d="M45.03,64.62c.23-.76.22-1.36.21-1.41v-29.37c-1.08-7.21-6.17-10.17-6.39-10.29L14.34,9.39l9.95-5.75,25.11,14.49c5,2.95,5.84,9.39,5.85,9.46v29.19c-.16,2.15-1.45,2.79-1.51,2.82l-8.72,5.01Z"/>
          <path class="cls-1" d="M24.3,4.32l24.81,14.32c4.49,2.65,5.47,8.32,5.57,8.97v29.13c-.14,1.79-1.14,2.32-1.15,2.33-.04.02-.07.03-.1.05l-7.59,4.37c0-.15,0-.25,0-.26v-29.39c0-.06,0-.12-.01-.17-1.11-7.41-6.44-10.49-6.66-10.62L15.51,9.39l8.79-5.08M24.3,2.97l-11.12,6.42,25.4,14.67s5.05,2.85,6.09,9.78v29.39s.07,1.92-1.48,3.12l10.81-6.22s1.65-.74,1.84-3.35v-29.26s-.82-6.75-6.14-9.89L24.3,2.97h0Z"/>
        </g>
      </g>
      <circle class="cls-3" cx="34.51" cy="34.51" r="34.51"/>
    </g>
  </g>
</svg>